<?xml version="1.0" encoding="utf-8"?>
<!-- Generator: Adobe Illustrator 21.1.0, SVG Export Plug-In . SVG Version: 6.00 Build 0)  -->
<svg version="1.1" id="Layer_1" xmlns="http://www.w3.org/2000/svg" xmlns:xlink="http://www.w3.org/1999/xlink" x="0px" y="0px"
	 viewBox="0 0 300.1 307.2" style="enable-background:new 0 0 300.1 307.2;" xml:space="preserve">
<style type="text/css">
	.st0{fill:#CB1E06;}
</style>
<path class="st0" d="M179.6,226.3l100.6-105c27.3-28.5,26.4-73.8-2.1-101.1C249.5-7.1,204.3-6.1,177,22.4L156.2,44l-21.9-22.4
	C106.5-6.8,60.9-7.3,32.5,20.5C4,48.4,3.6,93.9,31.4,122.4l25.1,25.7l-36.6,38.2C-7.4,214.8-6.5,260,22,287.4
	c13.9,13.3,31.7,19.9,49.5,19.9c18.8,0,37.6-7.4,51.6-22l33.5-34.9l51,52.1l47.5-0.1L179.6,226.3z M55.9,45.2
	c15-14.7,39.1-14.4,53.7,0.6l45.6,46.7l45.6-46.9c15-15.5,39.7-15.8,55.1-0.8c15.5,15,15.8,39.7,0.8,55.1l-100,103L55.3,98.9
	C40.6,83.9,40.9,59.9,55.9,45.2z M101.6,259.7c-7.6,7.9-17.8,11.8-28,11.8c-9.8,0-19.6-3.7-27.2-11c-15.5-15-15.8-39.7-0.8-55.1
	L79,171l54.6,55.8L101.6,259.7z"/>
<g>
	<path class="st0" d="M278.8,293.7c0-1.1-0.4-2.3-1.7-2.7c1-0.4,1.9-1.2,1.8-2.9c-0.3-2.9-3.6-2.7-3.6-2.7H271v11.1h1.5v-4.6l2.8,0
		c0,0,1.2,0,1.7,0.6c0.5,0.7,0.5,1.2,0.5,1.9c0,0.9,0.1,1.6,0.3,2h1.4C278.8,295.6,278.7,295.4,278.8,293.7z M275.2,290.4l-2.8,0
		v-3.5l2.4,0c0,0,2.3-0.2,2.4,1.7C277.3,290.4,275.2,290.4,275.2,290.4z"/>
	<path class="st0" d="M274.2,279.8c-6.1,0-11.1,5-11.1,11.1c0,6.1,5,11.1,11.1,11.1c6.1,0,11.1-5,11.1-11.1
		C285.4,284.8,280.4,279.8,274.2,279.8z M274.2,300.4c-5.2,0-9.5-4.3-9.5-9.5s4.3-9.5,9.5-9.5s9.5,4.3,9.5,9.5
		S279.5,300.4,274.2,300.4z"/>
</g>
</svg>
